# xmcd
#
# Track frame offsets: 
#        150
#        20669
#        39265
#        61405
#        79448
#        98722
#        119235
#        138436
#        155238
#        177186
#        195150
#        214580
#        231603
#        251344
#
# Disc length: 3690 seconds
#
# Revision: 0
# Processed by: cddbd v1.5.2PL0 Copyright (c) Steve Scherf et al.
# Submitted via: ExactAudioCopyFreeDBPlugin 1.0
#
DISCID=c60e680e
DTITLE=Jim Keaveny - Out of Time
DYEAR=2014
DGENRE=Country
TTITLE0=Eugene To Yuma
TTITLE1=From The Black
TTITLE2=Anything Without You
TTITLE3=Ridin' Boots
TTITLE4=I Found A Girl
TTITLE5=Out Of Sight
TTITLE6=Out Of Time
TTITLE7=Changing
TTITLE8=Someone To Talk To Blues
TTITLE9=Parkin' Meter
TTITLE10=Lucy Ain't Got No Arms
TTITLE11=How Was I To Know
TTITLE12=The Girl
TTITLE13=The Yippee-I-Ay Song
EXTD=
EXTT0=
EXTT1=
EXTT2=
EXTT3=
EXTT4=
EXTT5=
EXTT6=
EXTT7=
EXTT8=
EXTT9=
EXTT10=
EXTT11=
EXTT12=
EXTT13=
PLAYORDER=
